<?xml version="1.0" encoding="UTF-8"?>
<svg id="Layer_1" data-name="Layer 1" xmlns="http://www.w3.org/2000/svg" viewBox="314 431 1209 218">
  <circle cx="566.06" cy="540" r="13.93"/>
  <circle cx="334.25" cy="540" r="13.93" transform="translate(-292.55 642.16) rotate(-67.5)"/>
  <path d="M572.25,594.34c-3.83-2.21-8.28-2.38-12.1-.87-.94.33-1.82.55-2.64.67-11.69,1.96-21.41-8.32-23.04-19.42,0,0,0,.02-.01.02-.76-5.94-4.19-11.46-9.77-14.68-5.68-3.27-12.3-3.43-17.88-.99-6.66,2.21-13.06,1.68-19.05-1.46-1.61-.95-3.14-2.01-4.6-3.16,2-4.46,3.13-9.39,3.13-14.6s-1.09-10.01-3.05-14.42c1.43-1.12,2.94-2.15,4.52-3.07,5.98-3.13,12.39-3.68,19.05-1.47,5.58,2.43,12.2,2.28,17.88-1,5.58-3.22,9-8.75,9.76-14.69,0,0,.01.02.01.02.97-6.36,4.31-12.04,9.15-15.79,4.53-3.63,10.89-4.93,16.52-2.98,3.82,1.51,8.27,1.34,12.1-.88,6.66-3.85,8.94-12.37,5.1-19.03-3.85-6.66-12.37-8.94-19.03-5.1-3.83,2.21-6.21,5.98-6.81,10.04-.19.98-.43,1.85-.74,2.62-4.15,11.1-17.91,14.38-28.34,10.24,0,0,0,.02.01.02-5.52-2.31-12.02-2.1-17.6,1.12-5.68,3.28-9.12,8.94-9.8,14.98-1.41,6.87-5.08,12.15-10.79,15.77-1.6.9-3.25,1.69-4.95,2.37-5.84-7.87-14.85-13.25-25.14-14.25-.28-1.9-.44-3.81-.44-5.74.28-6.74,3.01-12.57,8.25-17.23,4.9-3.62,8.08-9.43,8.08-15.98s-3.07-12.17-7.83-15.8h.03c-5.02-4.02-8.27-9.75-9.09-15.82-.88-5.74,1.18-11.9,5.68-15.8,3.22-2.55,5.29-6.49,5.29-10.92,0-7.69-6.24-13.93-13.93-13.93s-13.93,6.24-13.93,13.93c0,4.43,2.07,8.36,5.29,10.91.75.65,1.39,1.3,1.9,1.95,7.54,9.15,3.49,22.7-5.31,29.67h.03c-4.76,3.63-7.83,9.35-7.83,15.8s3.18,12.37,8.07,15.98c5.24,4.66,7.98,10.48,8.26,17.23-.02,1.96-.18,3.92-.47,5.85-10.03,1.25-18.76,6.66-24.41,14.46-1.95-.74-3.84-1.63-5.65-2.67-5.7-3.61-9.38-8.89-10.8-15.76-.69-6.05-4.13-11.71-9.81-14.98-5.58-3.22-12.08-3.42-17.6-1.11,0,0,.01-.02.01-.02-5.99,2.34-12.58,2.29-18.25-.03-5.41-2.11-9.72-6.96-10.84-12.81-.6-4.06-2.98-7.83-6.81-10.04-6.67-3.84-15.19-1.56-19.03,5.11-3.84,6.67-1.56,15.19,5.11,19.03,3.83,2.21,8.28,2.38,12.1.87.94-.33,1.82-.55,2.64-.67,11.69-1.96,21.41,8.32,23.04,19.42,0,0,0-.02.01-.02.76,5.94,4.19,11.46,9.77,14.68,5.68,3.28,12.3,3.43,17.88.99,6.66-2.21,13.06-1.68,19.05,1.46,1.82,1.07,3.56,2.28,5.19,3.61-1.8,4.26-2.79,8.94-2.79,13.86s1.04,9.77,2.9,14.1c-1.66,1.36-3.43,2.6-5.29,3.68-5.98,3.13-12.39,3.68-19.05,1.47-5.58-2.43-12.2-2.28-17.88,1-5.58,3.22-9,8.75-9.76,14.69,0,0-.01-.02-.01-.02-.97,6.36-4.31,12.04-9.15,15.79-4.53,3.63-10.89,4.93-16.52,2.98-3.82-1.51-8.27-1.34-12.1.88-6.66,3.85-8.94,12.37-5.1,19.03,3.85,6.66,12.37,8.94,19.03,5.1,3.83-2.21,6.21-5.98,6.81-10.04.19-.98.43-1.85.74-2.62,4.15-11.1,17.91-14.38,28.34-10.24,0,0,0-.02-.01-.02,5.52,2.31,12.02,2.1,17.6-1.12,5.68-3.28,9.12-8.94,9.8-14.99,1.41-6.87,5.08-12.15,10.79-15.77,1.87-1.06,3.82-1.97,5.82-2.72,5.65,7.65,14.3,12.95,24.2,14.2.32,2.03.49,4.08.5,6.14-.28,6.74-3.01,12.57-8.25,17.23-4.9,3.62-8.08,9.43-8.08,15.98s3.07,12.17,7.83,15.8h-.03c5.02,4.02,8.27,9.75,9.09,15.82.88,5.74-1.18,11.9-5.68,15.8-3.22,2.55-5.29,6.49-5.29,10.92,0,7.69,6.24,13.93,13.93,13.93s13.93-6.24,13.93-13.93c0-4.43-2.07-8.36-5.29-10.91-.75-.65-1.39-1.3-1.9-1.95-7.54-9.15-3.49-22.7,5.31-29.67h-.03c4.76-3.63,7.83-9.35,7.83-15.8s-3.18-12.37-8.07-15.98c-5.24-4.66-7.98-10.48-8.26-17.23.02-2.02.19-4.04.5-6.03,10.18-1.01,19.11-6.31,24.94-14.06,1.75.7,3.46,1.51,5.1,2.45,5.7,3.61,9.38,8.89,10.8,15.76.69,6.05,4.13,11.71,9.81,14.98,5.58,3.22,12.08,3.42,17.6,1.11,0,0-.01.02-.01.02,5.99-2.34,12.58-2.29,18.25.03,5.41,2.11,9.72,6.96,10.84,12.81.6,4.06,2.98,7.83,6.81,10.04,6.67,3.84,15.19,1.56,19.03-5.11s1.56-15.19-5.11-19.03Z"/>
  <path d="M399.15,450.68c6.66-3.85,8.94-12.37,5.1-19.03s-12.37-8.94-19.03-5.1c-6.66,3.85-8.94,12.37-5.1,19.03,3.85,6.66,12.37,8.94,19.03,5.1Z"/>
  <path d="M499.58,450.81c6.73,3.73,15.21,1.3,18.94-5.43,3.73-6.73,1.3-15.21-5.43-18.94-6.73-3.73-15.21-1.3-18.94,5.43-3.73,6.73-1.3,15.21,5.43,18.94Z"/>
  <path d="M501.16,629.32c-6.66,3.85-8.94,12.37-5.1,19.03,3.85,6.66,12.37,8.94,19.03,5.1s8.94-12.37,5.1-19.03c-3.85-6.66-12.37-8.94-19.03-5.1Z"/>
  <path d="M400.73,629.19c-6.73-3.73-15.21-1.3-18.94,5.43-3.73,6.73-1.3,15.21,5.43,18.94,6.73,3.73,15.21,1.3,18.94-5.43,3.73-6.73,1.3-15.21-5.43-18.94Z"/>
  <polygon points="839.77 485.5 796.04 485.5 748.71 549.14 703.67 549.14 703.67 429.04 666.47 429.04 666.47 647.7 703.67 647.7 703.67 582.43 748.71 582.43 795.71 647.7 839.44 647.7 779.07 563.17 839.77 485.5"/>
  <path d="M962.13,491.21c-12.73-5.98-27.58-8.98-44.55-8.98s-33.02,3.48-46.18,10.44c-13.17,6.97-23.45,16.81-30.84,29.54-7.4,12.73-11.1,27.47-11.1,44.22,0,18.28,3.7,33.73,11.1,46.34,7.39,12.62,17.73,22.14,31,28.56,13.27,6.42,28.83,9.63,46.67,9.63,16.32,0,30.68-2.5,43.08-7.51,12.4-5,22.14-11.91,29.21-20.72,7.07-8.81,10.61-18.98,10.61-30.52v-2.94h-37.21v2.61c0,9.14-3.65,16.27-10.93,21.38-7.29,5.11-19.31,7.67-36.06,7.67-19.15,0-32.69-4.29-40.63-12.89-7.3-7.89-11.23-19.05-11.82-33.45h136.98c.43-2.39.76-4.78.98-7.18.21-2.39.33-5,.33-7.83,0-16.53-3.59-30.57-10.77-42.1-7.18-11.53-17.13-20.29-29.86-26.27ZM876.3,524.17c7.94-8.59,21.48-12.89,40.63-12.89,16.97,0,29.64,3.54,38.02,10.61,8.37,7.07,12.57,17.79,12.57,32.15,0,.11,0,.22,0,.33h-102.84c1.03-12.83,4.89-22.9,11.62-30.19Z"/>
  <path d="M1144.24,489.9c-7.73-5.11-17.79-7.67-30.19-7.67-11.1,0-20.51,2.01-28.23,6.04-7.73,4.03-13.87,9.58-18.44,16.64-4.57,7.07-7.62,15.07-9.14,23.99h-2.29v-43.41h-34.27v162.2h37.21v-91.38c0-13.92,2.94-24.48,8.81-31.66,5.87-7.18,15.45-10.77,28.72-10.77,11.96,0,20.45,2.61,25.46,7.83,5,5.22,7.51,13.49,7.51,24.8v14.69h37.21v-21.87c0-10.44-1.79-20.02-5.39-28.72-3.59-8.7-9.25-15.61-16.97-20.72Z"/>
  <path d="M1323.09,491.21c-9.9-5.98-22.36-8.98-37.37-8.98-13.93,0-25.62,2.56-35.08,7.67-9.46,5.11-16.86,11.75-22.19,19.91-5.33,8.16-8.76,16.81-10.28,25.95h-2.29v-50.26h-34.27v162.2h37.21v-80.61c0-16.97,3.97-29.81,11.91-38.51,7.94-8.7,20.61-13.05,38.02-13.05s28.72,3.65,35.9,10.93c7.18,7.29,10.77,18.44,10.77,33.45v87.79h36.88v-98.24c0-12.4-2.4-23.71-7.18-33.94-4.79-10.22-12.13-18.33-22.03-24.31Z"/>
  <path d="M1502.91,491.21c-12.73-5.98-27.58-8.98-44.55-8.98s-33.02,3.48-46.18,10.44c-13.17,6.97-23.45,16.81-30.84,29.54-7.4,12.73-11.1,27.47-11.1,44.22,0,18.28,3.7,33.73,11.1,46.34,7.39,12.62,17.73,22.14,31,28.56,13.27,6.42,28.83,9.63,46.67,9.63,16.32,0,30.68-2.5,43.08-7.51,12.4-5,22.14-11.91,29.21-20.72,7.07-8.81,10.61-18.98,10.61-30.52v-2.94h-37.21v2.61c0,9.14-3.65,16.27-10.93,21.38-7.29,5.11-19.31,7.67-36.06,7.67-19.15,0-32.69-4.29-40.63-12.89-7.3-7.89-11.23-19.05-11.82-33.45h136.98c.43-2.39.76-4.78.98-7.18.21-2.39.33-5,.33-7.83,0-16.53-3.59-30.57-10.77-42.1-7.18-11.53-17.13-20.29-29.86-26.27ZM1417.08,524.17c7.94-8.59,21.48-12.89,40.63-12.89,16.97,0,29.64,3.54,38.02,10.61,8.37,7.07,12.56,17.79,12.56,32.15,0,.11,0,.22,0,.33h-102.84c1.03-12.83,4.89-22.9,11.63-30.19Z"/>
  <rect x="1562.47" y="429.04"/>
</svg>